<svg width="224" height="224" viewBox="0 0 224 224" fill="none" xmlns="http://www.w3.org/2000/svg">
<rect width="224" height="224" fill="white"/>
<path d="M208.699 111.999C208.699 165.406 165.403 208.697 112 208.697C58.5995 208.697 15.3038 165.406 15.3038 111.999C15.3038 58.5976 58.5995 15.3022 112 15.3022C165.402 15.3022 208.699 58.5976 208.699 111.999Z" fill="url(#paint0_linear)" stroke="#292929"/>
<path d="M181.181 93.6372C181.181 73.1815 164.624 56.5257 144.2 56.3607C141.05 50.9846 136.509 46.3181 130.731 42.9872C113.017 32.7582 90.3138 38.7738 79.9661 56.3708C73.7223 56.416 67.4173 58.0137 61.6469 61.3492C43.9288 71.5793 37.7877 94.2496 47.8552 112.01C44.7717 117.437 43 123.696 43 130.365C43 150.818 59.5679 167.477 79.9831 167.639C83.1412 173.015 87.6744 177.681 93.4505 181.014C111.169 191.241 133.868 185.227 144.226 167.624C150.46 167.585 156.763 165.989 162.541 162.652C180.254 152.423 186.405 129.753 176.329 111.989C179.412 106.567 181.181 100.308 181.181 93.6372ZM141.439 95.0575C135.18 104.35 125.125 109.825 114.553 110.576C117.464 106.241 121.38 102.492 126.198 99.7025C131.012 96.9252 136.227 95.4123 141.439 95.0575ZM112.088 109.156C109.788 104.471 108.496 99.2008 108.496 93.6383C108.496 88.0758 109.788 82.8037 112.088 78.1158C117.009 88.182 116.719 99.629 112.088 109.156ZM109.626 110.582C104.417 110.229 99.2142 108.715 94.3928 105.932C89.5681 103.15 85.6598 99.3918 82.7424 95.0586C93.9206 95.8303 103.687 101.805 109.626 110.582ZM82.748 128.943C89.0043 119.648 99.0593 114.174 109.626 113.425C106.714 117.758 102.799 121.513 97.9837 124.295C93.1669 127.075 87.958 128.587 82.748 128.943ZM112.091 114.844C114.391 119.532 115.683 124.801 115.683 130.365C115.683 135.928 114.391 141.194 112.091 145.885C107.171 135.818 107.463 124.373 112.091 114.844ZM114.553 113.419C119.767 113.777 124.975 115.286 129.796 118.07C134.614 120.854 138.527 124.606 141.439 128.943C130.264 128.173 120.493 122.199 114.553 113.419ZM142.75 92.974L142.663 93.1152C136.729 93.2994 130.753 94.9027 125.26 98.0743C121.341 100.336 117.998 103.202 115.262 106.49C118.803 96.8303 118.346 85.7878 113.17 76.0955C119.155 65.6507 130.307 58.5357 143.12 58.2566C148.856 68.7478 149.153 81.8908 142.75 92.974ZM110.94 75.9373L111.019 76.0786C108.213 81.3168 106.617 87.2939 106.617 93.6372C106.617 98.1545 107.425 102.487 108.902 106.498C102.31 98.6065 92.5138 93.4767 81.5356 93.114C75.477 82.7054 74.8985 69.4901 81.0622 58.2544C93.0087 58.5402 104.543 64.8519 110.94 75.9373ZM80.2847 94.9648L80.4486 94.9671C83.5796 100.017 87.9569 104.387 93.4505 107.561C97.3589 109.82 101.517 111.284 105.727 112.01C95.5939 113.777 86.2609 119.692 80.4565 129.019C68.4162 129.058 56.6787 122.956 50.0292 111.998C56.2471 101.793 67.484 94.9648 80.2847 94.9648ZM81.4373 131.027L81.5209 130.89C87.4586 130.702 93.4302 129.098 98.9238 125.927C102.842 123.668 106.187 120.798 108.918 117.512C105.381 127.174 105.838 138.214 111.014 147.907C105.024 158.352 93.8776 165.465 81.0622 165.742C75.3369 155.256 75.0318 142.111 81.4373 131.027ZM113.242 148.062L113.166 147.919C115.97 142.683 117.566 136.703 117.566 130.365C117.566 125.842 116.758 121.513 115.281 117.501C121.881 125.399 131.671 130.522 142.649 130.89C148.704 141.295 149.286 154.512 143.12 165.743C131.17 165.466 119.642 159.149 113.242 148.062ZM143.895 129.038L143.734 129.036C140.605 123.984 136.227 119.61 130.738 116.44C126.817 114.18 122.663 112.714 118.457 111.99C128.592 110.229 137.921 104.309 143.726 94.9818C155.765 94.9456 167.502 101.045 174.151 112.003C167.933 122.209 156.698 129.038 143.895 129.038ZM79.3605 93.105C66.6377 93.4169 55.4787 100.132 48.9829 110.154C40.1526 93.4304 46.0734 72.5137 62.5836 62.9807C67.7405 60.0057 73.3426 58.4849 78.9052 58.2793C73.1246 69.5591 73.6533 82.5901 79.3605 93.105ZM79.3605 130.897C73.2691 142.074 73.5042 155.097 78.9402 165.727C60.039 165.016 44.8858 149.431 44.8858 130.365C44.8858 124.412 46.3728 118.801 48.9761 113.875C55.8493 124.526 67.4004 130.579 79.3605 130.897ZM144.821 130.897C157.546 130.587 168.71 123.869 175.204 113.853C184.034 130.574 178.105 151.486 161.593 161.021C156.443 163.996 150.846 165.517 145.275 165.721C151.056 154.443 150.528 141.414 144.821 130.897ZM144.821 93.105C150.915 81.9314 150.679 68.9048 145.251 58.2736C164.14 58.9866 179.293 74.5724 179.293 93.6383C179.293 99.5895 177.816 105.198 175.21 110.127C168.331 99.4743 156.775 93.4191 144.821 93.105ZM112.088 74.2063C105.461 63.3389 94.0584 57.0352 82.1367 56.4217C92.2042 40.4144 113.278 35.0835 129.796 44.6187C134.949 47.5926 139.063 51.6851 142.028 56.4013C129.364 57.0329 118.345 64.0067 112.088 74.2063ZM112.091 149.792C118.728 160.658 130.121 166.965 142.044 167.58C131.976 183.586 110.905 188.917 94.3951 179.383C89.2325 176.408 85.1242 172.316 82.1548 167.599C94.8233 166.968 105.838 159.992 112.091 149.792Z" fill="black"/>
<path d="M222 111.999C222 172.75 172.758 222.004 112.001 222.004C51.247 222.004 2 172.75 2 111.999C2 51.2493 51.247 2 112.001 2C172.758 2 222 51.2493 222 111.999Z" stroke="#292929" stroke-width="3" stroke-miterlimit="10"/>
<defs>
<linearGradient id="paint0_linear" x1="112.001" y1="14.8022" x2="112.001" y2="209.197" gradientUnits="userSpaceOnUse">
<stop stop-color="#00FFEB"/>
<stop offset="1" stop-color="#FF4C00"/>
</linearGradient>
</defs>
</svg>
