<svg width="203" height="188" viewBox="0 0 203 188" fill="none" xmlns="http://www.w3.org/2000/svg">
<rect x="68" y="44" width="47" height="114" fill="url(#paint0_linear)"/>
<rect x="174" y="44" width="21" height="114" fill="url(#paint1_linear)"/>
<rect x="45" y="44" width="47" height="114" fill="url(#paint2_linear)"/>
<circle cx="34" cy="124" r="34" fill="url(#paint3_linear)"/>
<path d="M143.5 71L195.029 158H91.9715L143.5 71Z" fill="url(#paint4_linear)"/>
<path d="M38.785 159.304C31.939 159.304 25.582 157.891 19.714 155.066C13.846 152.132 9.119 148.057 5.533 142.841L14.987 131.757C21.2897 140.776 29.2223 145.286 38.785 145.286C45.1963 145.286 50.032 143.33 53.292 139.418C56.6607 135.506 58.345 129.747 58.345 122.14V58.081H17.106V43.9H74.482V121.325C74.482 133.93 71.4393 143.439 65.354 149.85C59.3773 156.153 50.521 159.304 38.785 159.304Z" fill="#00FFEB"/>
<rect x="84" y="44" width="16" height="114" fill="#00FFEB"/>
<rect x="187" y="44" width="16" height="114" fill="#00FFEB"/>
<path d="M143.5 71L100 158L84.0001 149.5L143.5 71Z" fill="#00FFEB"/>
<path d="M143.5 71L200.009 148.717L187 158L143.5 71Z" fill="#00FFEB"/>
<path d="M143 101L169.847 147.5H116.153L143 101Z" fill="#008A7F"/>
<path d="M143 117L155.99 139.5H130.01L143 117Z" fill="#002D29"/>
<defs>
<linearGradient id="paint0_linear" x1="91.5" y1="44" x2="91.5" y2="158" gradientUnits="userSpaceOnUse">
<stop stop-color="#E73103"/>
<stop offset="0.817708" stop-color="#292929"/>
</linearGradient>
<linearGradient id="paint1_linear" x1="184.5" y1="44" x2="184.5" y2="158" gradientUnits="userSpaceOnUse">
<stop stop-color="#E73103"/>
<stop offset="0.817708" stop-color="#292929"/>
</linearGradient>
<linearGradient id="paint2_linear" x1="68.5" y1="44" x2="68.5" y2="158" gradientUnits="userSpaceOnUse">
<stop stop-color="#E73103"/>
<stop offset="0.817708" stop-color="#292929"/>
</linearGradient>
<linearGradient id="paint3_linear" x1="34" y1="90" x2="34" y2="158" gradientUnits="userSpaceOnUse">
<stop stop-color="#E73103"/>
<stop offset="1" stop-color="#006177"/>
</linearGradient>
<linearGradient id="paint4_linear" x1="143.5" y1="71" x2="143.5" y2="187" gradientUnits="userSpaceOnUse">
<stop stop-color="#E73103"/>
<stop offset="1" stop-color="#006177"/>
</linearGradient>
</defs>
</svg>
